<svg width="312" height="30" viewBox="0 0 312 30" fill="none" xmlns="http://www.w3.org/2000/svg">
<path d="M32.9716 9.37056H37.6033L38.1822 12.3835H38.2546C39.6007 9.9472 41.931 9.15431 43.7257 9.15431C44.3481 9.15431 44.8258 9.18315 45.26 9.29847V14.7478C44.71 14.6036 44.131 14.5604 43.581 14.5604C41.1349 14.5604 38.8046 15.8722 38.8046 19.6492V29.4954H32.9716V9.37056Z" fill="white"/>
<path d="M46.5337 19.5051C46.5337 13.0755 50.9482 8.866 55.5075 8.866C58.5325 8.866 60.8339 10.3941 62.1366 12.4556L62.7155 9.37056H67.6366V29.4954H62.7155L62.1366 26.4104C60.8194 28.5151 58.5325 30 55.5075 30C50.9482 30 46.5337 25.7905 46.5337 19.5051ZM61.9194 19.433C61.9194 16.3047 59.9076 14.099 57.2154 14.099C54.5233 14.099 52.3956 16.3912 52.3956 19.433C52.3956 22.4748 54.4364 24.767 57.2154 24.767C59.9944 24.767 61.9194 22.5469 61.9194 19.433Z" fill="white"/>
<path d="M73.846 14.1566H71.067V9.37047H73.846V7.3378C73.846 3.56078 76.6105 0 81.7922 0C83.1817 0 84.3396 0.216242 85.6567 0.619892V5.49253C84.933 5.27629 83.9053 5.06005 82.8053 5.06005C80.6921 5.06005 79.5921 5.89618 79.5921 7.82794V9.38488H84.9185V14.171H79.6645V29.4953H73.8315V14.171L73.846 14.1566Z" fill="white"/>
<path d="M86.1343 19.5051C86.1343 13.0755 90.5489 8.866 95.1082 8.866C98.1332 8.866 100.435 10.3941 101.737 12.4556L102.316 9.37056H107.237V29.4954H102.316L101.737 26.4104C100.42 28.5151 98.1332 30 95.1082 30C90.5489 30 86.1343 25.7905 86.1343 19.5051ZM101.52 19.433C101.52 16.3047 99.5082 14.099 96.8161 14.099C94.1239 14.099 91.9963 16.3912 91.9963 19.433C91.9963 22.4748 94.0371 24.767 96.8161 24.767C99.5951 24.767 101.52 22.5469 101.52 19.433Z" fill="white"/>
<path d="M130.135 21.062H116.385C117.152 23.9308 119.67 25.4157 122.724 25.4157C124.953 25.4157 127.096 24.6516 129.035 23.4118V28.1692C126.951 29.3657 124.592 29.9856 122.001 29.9856C114.894 29.9856 110.812 25.5887 110.812 19.4907C110.812 13.3927 115.328 8.85158 120.944 8.85158C126.082 8.85158 130.28 12.3691 130.28 19.087C130.28 19.8078 130.236 20.471 130.135 21.0476M124.736 17.5733C124.693 14.964 123.057 13.4359 120.901 13.4359C118.744 13.4359 116.819 15.0361 116.269 17.5733H124.736Z" fill="white"/>
<path d="M139.76 0.331565H133.927V29.4953H139.76V0.331565Z" fill="white"/>
<path d="M153.105 21.3215V9.37055H158.938V21.3215C158.938 23.5704 160.14 24.7669 162.253 24.7669C164.366 24.7669 165.683 23.5704 165.683 21.2783V9.37055H171.516V21.3215C171.516 26.4104 168.013 30 162.253 30C156.492 30 153.105 26.4104 153.105 21.3215Z" fill="white"/>
<path d="M181.793 0.331565H175.96V29.4953H181.793V0.331565Z" fill="white"/>
<path d="M193.357 9.37039H198.756V14.171H193.357V21.3934C193.357 23.9307 195.036 24.9109 197.294 24.9109C197.844 24.9109 198.466 24.8389 199.118 24.7235V29.5962C198.278 29.7836 197.366 29.9277 195.948 29.9277C190.593 29.9277 187.712 26.7706 187.712 21.7538V14.1565H184.861V9.35598H187.741V4.71399H193.357V9.37039Z" fill="white"/>
<path d="M202.36 9.37056H206.992L207.571 12.3835H207.643C208.989 9.9472 211.319 9.15431 213.114 9.15431C213.736 9.15431 214.214 9.18315 214.648 9.29847V14.7478C214.098 14.6036 213.519 14.5604 212.969 14.5604C210.523 14.5604 208.193 15.8722 208.193 19.6492V29.4954H202.36V9.37056Z" fill="white"/>
<path d="M215.922 19.5051C215.922 13.0755 220.337 8.866 224.896 8.866C227.921 8.866 230.222 10.3941 231.525 12.4556L232.104 9.37056H237.025V29.4954H232.104L231.525 26.4104C230.208 28.5151 227.921 30 224.896 30C220.337 30 215.922 25.7905 215.922 19.5051ZM231.308 19.433C231.308 16.3047 229.296 14.099 226.604 14.099C223.912 14.099 221.784 16.3912 221.784 19.433C221.784 22.4748 223.825 24.767 226.604 24.767C229.383 24.767 231.308 22.5469 231.308 19.433Z" fill="white"/>
<path d="M270.474 16.1605V29.4954H264.641V17.3715C264.641 15.1947 263.918 14.1423 261.949 14.1423C259.981 14.1423 258.996 15.5262 258.996 17.1553V29.5099H253.163V17.3859C253.163 15.2091 252.44 14.1567 250.471 14.1567C248.503 14.1567 247.562 15.6848 247.562 17.4292V29.5243H241.729V9.37056H246.245L246.824 12.1673H246.94C247.996 10.3941 249.748 8.866 252.556 8.866C255.363 8.866 257.187 10.2067 258.215 12.2826C259.532 10.1779 261.457 8.866 264.019 8.866C268.433 8.866 270.503 11.7636 270.503 16.1605" fill="white"/>
<path d="M273.934 19.5051C273.934 13.0755 278.348 8.866 282.907 8.866C285.932 8.866 288.234 10.3941 289.536 12.4556L290.115 9.37056H295.037V29.4954H290.115L289.536 26.4104C288.219 28.5151 285.932 30 282.907 30C278.348 30 273.934 25.7905 273.934 19.5051ZM289.319 19.433C289.319 16.3047 287.307 14.099 284.615 14.099C281.923 14.099 279.795 16.3912 279.795 19.433C279.795 22.4748 281.836 24.767 284.615 24.767C287.394 24.767 289.319 22.5469 289.319 19.433Z" fill="white"/>
<path d="M299.712 9.37056H304.343L304.922 12.3835H304.995C306.341 9.9472 308.671 9.15431 310.466 9.15431C311.088 9.15431 311.566 9.18315 312 9.29847V14.7478C311.45 14.6036 310.871 14.5604 310.321 14.5604C307.875 14.5604 305.545 15.8722 305.545 19.6492V29.4954H299.712V9.37056Z" fill="white"/>
<path d="M11.0291 0.432483C16.1384 0.432483 20.3359 4.5699 20.3359 9.70203C20.3359 13.1475 18.5122 16.2902 15.7042 17.8904L0 0.432483H11.0291ZM0 5.60786V17.1119L11.6805 29.9999H22.0148L0 5.60786ZM7.00538 29.9999L0 22.3738V29.9999H7.00538Z" fill="#CB2C30"/>
</svg>
